<svg width="18" height="18" viewBox="0 0 18 18" xmlns="http://www.w3.org/2000/svg"><title>icon-print</title><path d="M13.412 6.147H4.47v-4.47C4.47.75 5.22 0 6.147 0h5.588c.926 0 1.677.75 1.677 1.676v4.47zm4.47-.559v7.265c0 .926-.75 1.676-1.676 1.676h-1.118v1.677c0 .925-.75 1.676-1.676 1.676H4.47c-.926 0-1.677-.75-1.677-1.676v-1.677H1.676C.751 14.53 0 13.78 0 12.853V5.588c0-.926.75-1.676 1.676-1.676h1.118v3.911h12.294V3.912h1.118c.925 0 1.676.75 1.676 1.676zm-5.03 6.147H5.03v3.912h7.824v-3.912z"/></svg>