<?xml version="1.0" encoding="utf-8"?>
<!-- Generator: Adobe Illustrator 19.1.0, SVG Export Plug-In . SVG Version: 6.00 Build 0)  -->
<svg version="1.1" id="Layer_1" xmlns="http://www.w3.org/2000/svg" xmlns:xlink="http://www.w3.org/1999/xlink" x="0px" y="0px"
	 viewBox="0 0 91.6 110.1" style="enable-background:new 0 0 91.6 110.1;" xml:space="preserve">
<style type="text/css">
	.st0{fill:#FFFFFF;}
</style>
<g>
	<g>
		<g>
			<path class="st0" d="M69.3,28.8c1.5,0,2.7-1.2,2.7-2.7V2.7C72,1.2,70.8,0,69.3,0c-1.5,0-2.7,1.2-2.7,2.7v23.4
				C66.6,27.6,67.8,28.8,69.3,28.8z"/>
		</g>
		<g>
			<path class="st0" d="M22.4,28.8c1.5,0,2.7-1.2,2.7-2.7V2.7c0-1.5-1.2-2.7-2.7-2.7c-1.5,0-2.7,1.2-2.7,2.7v23.4
				C19.7,27.6,20.9,28.8,22.4,28.8z"/>
		</g>
	</g>
</g>
<path class="st0" d="M79.6,14.2h-4.8V20c1.4,1.4,2.3,3.4,2.3,5.5c0,4.4-3.6,8-8,8c-4.4,0-8-3.6-8-8c0-2.2,0.9-4.1,2.3-5.5v-5.8H28.2
	V20c1.4,1.4,2.3,3.4,2.3,5.5c0,4.4-3.6,8-7.9,8c-4.4,0-7.9-3.6-7.9-8c0-2.2,0.9-4.1,2.3-5.5v-5.8H12c-6.6,0-12,5.4-12,12v71.9
	c0,6.6,5.4,12,12,12h67.6c6.6,0,12-5.4,12-12V26.2C91.6,19.6,86.2,14.2,79.6,14.2z M84.2,90.4c0,6.6-5.4,12-12,12H19.4
	c-6.6,0-12-5.4-12-12V49.6c0-6.6,5.4-12,12-12h52.9c6.6,0,12,5.4,12,12V90.4z"/>
<g>
	<g>
		<rect x="68.4" y="46.3" class="st0" width="9.2" height="9.5"/>
	</g>
	<g>
		<rect x="55" y="46.3" class="st0" width="9.2" height="9.5"/>
	</g>
	<g>
		<rect x="41.6" y="46.3" class="st0" width="9.2" height="9.5"/>
	</g>
	<g>
		<rect x="68.4" y="59.5" class="st0" width="9.2" height="9.5"/>
	</g>
	<g>
		<rect x="55" y="59.5" class="st0" width="9.2" height="9.5"/>
	</g>
	<g>
		<rect x="41.6" y="59.5" class="st0" width="9.2" height="9.5"/>
	</g>
	<g>
		<rect x="28.2" y="59.5" class="st0" width="9.2" height="9.5"/>
	</g>
	<g>
		<rect x="14.8" y="59.5" class="st0" width="9.2" height="9.5"/>
	</g>
	<g>
		<rect x="68.4" y="72.8" class="st0" width="9.2" height="9.5"/>
	</g>
	<g>
		<rect x="55" y="72.8" class="st0" width="9.2" height="9.5"/>
	</g>
	<g>
		<rect x="41.6" y="72.8" class="st0" width="9.2" height="9.5"/>
	</g>
	<g>
		<rect x="28.2" y="72.8" class="st0" width="9.2" height="9.5"/>
	</g>
	<g>
		<rect x="14.8" y="72.8" class="st0" width="9.2" height="9.5"/>
	</g>
	<g>
		<rect x="55" y="86" class="st0" width="9.2" height="9.5"/>
	</g>
	<g>
		<rect x="41.6" y="86" class="st0" width="9.2" height="9.5"/>
	</g>
	<g>
		<rect x="28.2" y="86" class="st0" width="9.2" height="9.5"/>
	</g>
	<g>
		<rect x="14.8" y="86" class="st0" width="9.2" height="9.5"/>
	</g>
</g>
</svg>
