<svg width="18px" height="18px" viewBox="0 0 18 18" version="1.1" xmlns="http://www.w3.org/2000/svg">
    <title>icon-print</title>
    <path d="M13.4115272,6.14694996 L4.47050906,6.14694996 L4.47050906,1.6764409 C4.47050906,0.750568156 5.22107722,0 6.14694996,0 L11.7350863,0 C12.660959,0 13.4115272,0.750568156 13.4115272,1.6764409 L13.4115272,6.14694996 Z M17.8820362,5.58813633 L17.8820362,12.8527136 C17.8820362,13.7785863 17.1314681,14.5291545 16.2055954,14.5291545 L15.0879681,14.5291545 L15.0879681,16.2055954 C15.0879681,17.1314681 14.3373999,17.8820362 13.4115272,17.8820362 L4.47050906,17.8820362 C3.54463632,17.8820362 2.79406816,17.1314681 2.79406816,16.2055954 L2.79406816,14.5291545 L1.6764409,14.5291545 C0.750568156,14.5291545 0,13.7785863 0,12.8527136 L0,5.58813633 C0,4.66226359 0.750568156,3.91169543 1.6764409,3.91169543 L2.79406816,3.91169543 L2.79406816,7.82339086 L15.0879681,7.82339086 L15.0879681,3.91169543 L16.2055954,3.91169543 C17.1314681,3.91169543 17.8820362,4.66226359 17.8820362,5.58813633 Z M12.8527136,11.7350863 L5.0293227,11.7350863 L5.0293227,15.6467817 L12.8527136,15.6467817 L12.8527136,11.7350863 Z" id="Shape"></path>
</svg>